# xmcd
#
# Track frame offsets:
#	150
#	15514
#	26135
#	41096
#	62480
#	83407
#	99903
#	116247
#	140015
#	160025
#	173751
#	185859
#	212353
#	227498
#	237526
#	253505
#	264172
#	280700
#	297634
#	319081
#
# Disc length: 4594 seconds
#
# Revision: 1
# Processed by: cddbd v1.5.2PL0 Copyright (c) Steve Scherf et al.
# Submitted via: EasyCDDAExtractor 10.0.5.1
#
DISCID=1311f014
DTITLE=Various Artist - Mega 98.3  [CD1]
DYEAR=2000
DGENRE=Top 40
TTITLE0=Seru Giran - No Llores Por Mi Argentina
TTITLE1=Andres Calamaro - Otro Amor En Avellaneda
TTITLE2=GIT - Viento Loco
TTITLE3=La Renga -  La Nave Del Olvido (En Vivo)
TTITLE4=Leon Gieco -  Hombres De Hierro
TTITLE5=Celeste Carballo - Me Vuelvo Cada Dia Mas Loca
TTITLE6=Enanitos Verdes - La Muralla Verde
TTITLE7=Ruben Rada - Blumana
TTITLE8=La Pesada - Tontos
TTITLE9=Dos Minutos - Ya No Sos Igual
TTITLE10=Sumo - No Tan Distintos
TTITLE11=Los Helicopteros - Radio Venus
TTITLE12=Los Twist - El Primero Te Lo Regalan
TTITLE13=Viuda E Hijas - Bikini A Lunares Amarillos
TTITLE14=Bersuit - Yo Tomo
TTITLE15=Alphonso S'entrega - Barrio Chino
TTITLE16=Pastoral - En El Hospicio
TTITLE17=Pedro Aznar - Conduciendo Una Locomotora
TTITLE18=Fabiana Cantilo - El Monstruo De La Laguna
TTITLE19=Soda Stereo - En La Ciudad De La Furia
EXTD=
EXTT0=
EXTT1=
EXTT2=
EXTT3=
EXTT4=
EXTT5=
EXTT6=
EXTT7=
EXTT8=
EXTT9=
EXTT10=
EXTT11=
EXTT12=
EXTT13=
EXTT14=
EXTT15=
EXTT16=
EXTT17=
EXTT18=
EXTT19=
PLAYORDER=
